<mxfile host="app.diagrams.net" modified="2021-10-13T10:49:36.262Z" agent="5.0 (Windows NT 10.0; Win64; x64) AppleWebKit/537.36 (KHTML, like Gecko) Chrome/94.0.4606.71 Safari/537.36" etag="VRhflyTarKMVVNZlCIou" version="15.5.1" type="github">
  <diagram id="C5RBs43oDa-KdzZeNtuy" name="Page-1">
    <mxGraphModel dx="1022" dy="436" grid="1" gridSize="10" guides="1" tooltips="1" connect="1" arrows="1" fold="1" page="1" pageScale="1" pageWidth="980" pageHeight="1390" math="0" shadow="0">
      <root>
        <mxCell id="WIyWlLk6GJQsqaUBKTNV-0" />
        <mxCell id="WIyWlLk6GJQsqaUBKTNV-1" parent="WIyWlLk6GJQsqaUBKTNV-0" />
        <mxCell id="JB18DaB62dUmoK2U4JxH-28" value="" style="edgeStyle=orthogonalEdgeStyle;rounded=0;orthogonalLoop=1;jettySize=auto;html=1;" edge="1" parent="WIyWlLk6GJQsqaUBKTNV-1" source="WIyWlLk6GJQsqaUBKTNV-3" target="JB18DaB62dUmoK2U4JxH-1">
          <mxGeometry relative="1" as="geometry" />
        </mxCell>
        <mxCell id="WIyWlLk6GJQsqaUBKTNV-3" value="상대편이 숫자 1~9 중&lt;br&gt;4개 선택한다" style="rounded=1;whiteSpace=wrap;html=1;fontSize=12;glass=0;strokeWidth=1;shadow=0;arcSize=50;" parent="WIyWlLk6GJQsqaUBKTNV-1" vertex="1">
          <mxGeometry x="70" y="120" width="140" height="50" as="geometry" />
        </mxCell>
        <mxCell id="JB18DaB62dUmoK2U4JxH-27" value="" style="edgeStyle=orthogonalEdgeStyle;rounded=0;orthogonalLoop=1;jettySize=auto;html=1;" edge="1" parent="WIyWlLk6GJQsqaUBKTNV-1" source="JB18DaB62dUmoK2U4JxH-0" target="WIyWlLk6GJQsqaUBKTNV-3">
          <mxGeometry relative="1" as="geometry" />
        </mxCell>
        <mxCell id="JB18DaB62dUmoK2U4JxH-0" value="시작" style="ellipse;whiteSpace=wrap;html=1;aspect=fixed;" vertex="1" parent="WIyWlLk6GJQsqaUBKTNV-1">
          <mxGeometry x="100" y="30" width="50" height="50" as="geometry" />
        </mxCell>
        <mxCell id="JB18DaB62dUmoK2U4JxH-29" value="" style="edgeStyle=orthogonalEdgeStyle;rounded=0;orthogonalLoop=1;jettySize=auto;html=1;" edge="1" parent="WIyWlLk6GJQsqaUBKTNV-1" source="JB18DaB62dUmoK2U4JxH-1" target="JB18DaB62dUmoK2U4JxH-6">
          <mxGeometry relative="1" as="geometry" />
        </mxCell>
        <mxCell id="JB18DaB62dUmoK2U4JxH-1" value="10번의 기회가 주어짐" style="rounded=1;whiteSpace=wrap;html=1;fontSize=12;glass=0;strokeWidth=1;shadow=0;arcSize=50;" vertex="1" parent="WIyWlLk6GJQsqaUBKTNV-1">
          <mxGeometry x="80" y="280" width="140" height="50" as="geometry" />
        </mxCell>
        <mxCell id="JB18DaB62dUmoK2U4JxH-30" value="" style="edgeStyle=orthogonalEdgeStyle;rounded=0;orthogonalLoop=1;jettySize=auto;html=1;" edge="1" parent="WIyWlLk6GJQsqaUBKTNV-1" source="JB18DaB62dUmoK2U4JxH-2" target="JB18DaB62dUmoK2U4JxH-4">
          <mxGeometry relative="1" as="geometry" />
        </mxCell>
        <mxCell id="JB18DaB62dUmoK2U4JxH-2" value="맞출 유저가 숫자 4개를 입력한다" style="rounded=1;whiteSpace=wrap;html=1;fontSize=12;glass=0;strokeWidth=1;shadow=0;arcSize=50;" vertex="1" parent="WIyWlLk6GJQsqaUBKTNV-1">
          <mxGeometry x="450" y="40" width="140" height="50" as="geometry" />
        </mxCell>
        <mxCell id="JB18DaB62dUmoK2U4JxH-33" value="" style="edgeStyle=orthogonalEdgeStyle;rounded=0;orthogonalLoop=1;jettySize=auto;html=1;" edge="1" parent="WIyWlLk6GJQsqaUBKTNV-1" source="JB18DaB62dUmoK2U4JxH-4" target="JB18DaB62dUmoK2U4JxH-32">
          <mxGeometry relative="1" as="geometry" />
        </mxCell>
        <mxCell id="JB18DaB62dUmoK2U4JxH-37" value="" style="edgeStyle=orthogonalEdgeStyle;rounded=0;orthogonalLoop=1;jettySize=auto;html=1;" edge="1" parent="WIyWlLk6GJQsqaUBKTNV-1" source="JB18DaB62dUmoK2U4JxH-4">
          <mxGeometry relative="1" as="geometry">
            <mxPoint x="415" y="250" as="targetPoint" />
          </mxGeometry>
        </mxCell>
        <mxCell id="JB18DaB62dUmoK2U4JxH-4" value="제시한 숫자랑 완전&lt;br&gt;같은가?" style="rhombus;whiteSpace=wrap;html=1;" vertex="1" parent="WIyWlLk6GJQsqaUBKTNV-1">
          <mxGeometry x="435" y="130" width="170" height="80" as="geometry" />
        </mxCell>
        <mxCell id="JB18DaB62dUmoK2U4JxH-6" value="대기" style="rounded=0;whiteSpace=wrap;html=1;" vertex="1" parent="WIyWlLk6GJQsqaUBKTNV-1">
          <mxGeometry x="95" y="375" width="110" height="45" as="geometry" />
        </mxCell>
        <mxCell id="JB18DaB62dUmoK2U4JxH-7" value="예" style="text;html=1;strokeColor=none;fillColor=none;align=center;verticalAlign=middle;whiteSpace=wrap;rounded=0;" vertex="1" parent="WIyWlLk6GJQsqaUBKTNV-1">
          <mxGeometry x="400" y="190" width="60" height="30" as="geometry" />
        </mxCell>
        <mxCell id="JB18DaB62dUmoK2U4JxH-8" value="아니요" style="text;html=1;strokeColor=none;fillColor=none;align=center;verticalAlign=middle;whiteSpace=wrap;rounded=0;" vertex="1" parent="WIyWlLk6GJQsqaUBKTNV-1">
          <mxGeometry x="590" y="190" width="60" height="30" as="geometry" />
        </mxCell>
        <mxCell id="JB18DaB62dUmoK2U4JxH-11" value="게임&lt;br&gt;종료" style="ellipse;whiteSpace=wrap;html=1;aspect=fixed;" vertex="1" parent="WIyWlLk6GJQsqaUBKTNV-1">
          <mxGeometry x="395" y="330" width="50" height="50" as="geometry" />
        </mxCell>
        <mxCell id="JB18DaB62dUmoK2U4JxH-38" value="" style="edgeStyle=orthogonalEdgeStyle;rounded=0;orthogonalLoop=1;jettySize=auto;html=1;" edge="1" parent="WIyWlLk6GJQsqaUBKTNV-1" source="JB18DaB62dUmoK2U4JxH-14" target="JB18DaB62dUmoK2U4JxH-11">
          <mxGeometry relative="1" as="geometry" />
        </mxCell>
        <mxCell id="JB18DaB62dUmoK2U4JxH-14" value="홈런" style="rounded=1;whiteSpace=wrap;html=1;fontSize=12;glass=0;strokeWidth=1;shadow=0;arcSize=50;" vertex="1" parent="WIyWlLk6GJQsqaUBKTNV-1">
          <mxGeometry x="370" y="245" width="100" height="40" as="geometry" />
        </mxCell>
        <mxCell id="JB18DaB62dUmoK2U4JxH-17" value="게임&lt;br&gt;종료" style="ellipse;whiteSpace=wrap;html=1;aspect=fixed;" vertex="1" parent="WIyWlLk6GJQsqaUBKTNV-1">
          <mxGeometry x="885" y="610" width="50" height="50" as="geometry" />
        </mxCell>
        <mxCell id="JB18DaB62dUmoK2U4JxH-44" value="" style="edgeStyle=orthogonalEdgeStyle;rounded=0;orthogonalLoop=1;jettySize=auto;html=1;" edge="1" parent="WIyWlLk6GJQsqaUBKTNV-1" source="JB18DaB62dUmoK2U4JxH-18" target="JB18DaB62dUmoK2U4JxH-17">
          <mxGeometry relative="1" as="geometry" />
        </mxCell>
        <mxCell id="JB18DaB62dUmoK2U4JxH-18" value="아웃" style="rounded=1;whiteSpace=wrap;html=1;fontSize=12;glass=0;strokeWidth=1;shadow=0;arcSize=50;" vertex="1" parent="WIyWlLk6GJQsqaUBKTNV-1">
          <mxGeometry x="860" y="510" width="100" height="40" as="geometry" />
        </mxCell>
        <mxCell id="JB18DaB62dUmoK2U4JxH-20" value="예" style="text;html=1;strokeColor=none;fillColor=none;align=center;verticalAlign=middle;whiteSpace=wrap;rounded=0;" vertex="1" parent="WIyWlLk6GJQsqaUBKTNV-1">
          <mxGeometry x="530" y="335" width="60" height="30" as="geometry" />
        </mxCell>
        <mxCell id="JB18DaB62dUmoK2U4JxH-21" value="아니요" style="text;html=1;strokeColor=none;fillColor=none;align=center;verticalAlign=middle;whiteSpace=wrap;rounded=0;" vertex="1" parent="WIyWlLk6GJQsqaUBKTNV-1">
          <mxGeometry x="710" y="335" width="60" height="30" as="geometry" />
        </mxCell>
        <mxCell id="JB18DaB62dUmoK2U4JxH-22" value="숫자만 같은가?" style="rhombus;whiteSpace=wrap;html=1;" vertex="1" parent="WIyWlLk6GJQsqaUBKTNV-1">
          <mxGeometry x="720" y="375" width="170" height="80" as="geometry" />
        </mxCell>
        <mxCell id="JB18DaB62dUmoK2U4JxH-23" value="예" style="text;html=1;strokeColor=none;fillColor=none;align=center;verticalAlign=middle;whiteSpace=wrap;rounded=0;" vertex="1" parent="WIyWlLk6GJQsqaUBKTNV-1">
          <mxGeometry x="670" y="470" width="60" height="30" as="geometry" />
        </mxCell>
        <mxCell id="JB18DaB62dUmoK2U4JxH-25" value="볼" style="rounded=1;whiteSpace=wrap;html=1;fontSize=12;glass=0;strokeWidth=1;shadow=0;arcSize=50;" vertex="1" parent="WIyWlLk6GJQsqaUBKTNV-1">
          <mxGeometry x="640" y="510" width="100" height="40" as="geometry" />
        </mxCell>
        <mxCell id="JB18DaB62dUmoK2U4JxH-26" value="아니요" style="text;html=1;strokeColor=none;fillColor=none;align=center;verticalAlign=middle;whiteSpace=wrap;rounded=0;" vertex="1" parent="WIyWlLk6GJQsqaUBKTNV-1">
          <mxGeometry x="850" y="470" width="60" height="30" as="geometry" />
        </mxCell>
        <mxCell id="JB18DaB62dUmoK2U4JxH-41" value="" style="edgeStyle=orthogonalEdgeStyle;rounded=0;orthogonalLoop=1;jettySize=auto;html=1;" edge="1" parent="WIyWlLk6GJQsqaUBKTNV-1" source="JB18DaB62dUmoK2U4JxH-32">
          <mxGeometry relative="1" as="geometry">
            <mxPoint x="810" y="370" as="targetPoint" />
          </mxGeometry>
        </mxCell>
        <mxCell id="JB18DaB62dUmoK2U4JxH-32" value="자릿수와 숫자가&lt;br&gt;같은게 있는가?" style="rhombus;whiteSpace=wrap;html=1;" vertex="1" parent="WIyWlLk6GJQsqaUBKTNV-1">
          <mxGeometry x="610" y="245" width="170" height="80" as="geometry" />
        </mxCell>
        <mxCell id="JB18DaB62dUmoK2U4JxH-39" value="스트라이크" style="rounded=1;whiteSpace=wrap;html=1;fontSize=12;glass=0;strokeWidth=1;shadow=0;arcSize=50;" vertex="1" parent="WIyWlLk6GJQsqaUBKTNV-1">
          <mxGeometry x="530" y="375" width="100" height="40" as="geometry" />
        </mxCell>
        <mxCell id="JB18DaB62dUmoK2U4JxH-43" value="" style="edgeStyle=orthogonalEdgeStyle;rounded=0;orthogonalLoop=1;jettySize=auto;html=1;" edge="1" parent="WIyWlLk6GJQsqaUBKTNV-1">
          <mxGeometry relative="1" as="geometry">
            <mxPoint x="880" y="415" as="sourcePoint" />
            <mxPoint x="910" y="500" as="targetPoint" />
          </mxGeometry>
        </mxCell>
        <mxCell id="JB18DaB62dUmoK2U4JxH-45" value="" style="edgeStyle=orthogonalEdgeStyle;rounded=0;orthogonalLoop=1;jettySize=auto;html=1;exitX=0;exitY=0.5;exitDx=0;exitDy=0;" edge="1" parent="WIyWlLk6GJQsqaUBKTNV-1" source="JB18DaB62dUmoK2U4JxH-22">
          <mxGeometry relative="1" as="geometry">
            <mxPoint x="660" y="420" as="sourcePoint" />
            <mxPoint x="690" y="505" as="targetPoint" />
          </mxGeometry>
        </mxCell>
        <mxCell id="JB18DaB62dUmoK2U4JxH-46" value="" style="edgeStyle=orthogonalEdgeStyle;rounded=0;orthogonalLoop=1;jettySize=auto;html=1;exitX=0;exitY=0.5;exitDx=0;exitDy=0;" edge="1" parent="WIyWlLk6GJQsqaUBKTNV-1">
          <mxGeometry relative="1" as="geometry">
            <mxPoint x="610" y="280" as="sourcePoint" />
            <mxPoint x="580" y="370" as="targetPoint" />
          </mxGeometry>
        </mxCell>
      </root>
    </mxGraphModel>
  </diagram>
</mxfile>
